<svg width="80" height="80" viewBox="0 0 24 24" xmlns="http://www.w3.org/2000/svg">
 <g>
  <path id="svg_7" d="m12.44715,17.82313c-1.86407,0 -3.37396,-2.07383 -3.37396,-4.63411c0,-2.56028 1.50989,-4.63411 3.37396,-4.63411c1.86407,0 3.37396,2.07383 3.37396,4.63411c0,2.56028 -1.50989,4.63411 -3.37396,4.63411z"  stroke-width="0" stroke="#000" fill="#FFFF00"/>
  <path id="svg_6" d="m12.4878,22.13204c-1.48227,0 -2.68291,-1.14606 -2.68291,-2.56096c0,-1.41489 1.20064,-2.56096 2.68291,-2.56096c1.48227,0 2.68291,1.14606 2.68291,2.56096c0,1.41489 -1.20064,2.56096 -2.68291,2.56096z"  stroke-width="0" stroke="#000" fill="#FFFF00"/>
  <path id="svg_4" d="m12.5691,13.43292c-3.23404,0 -5.85362,-2.565 -5.85362,-5.73167c0,-3.16667 2.61957,-5.73167 5.85362,-5.73167c3.23404,0 5.85362,2.565 5.85362,5.73167c0,3.16667 -2.61957,5.73167 -5.85362,5.73167z" stroke-width="0" stroke="#000" fill="#FFFF00"/>
  <path id="svg_1" d="m12.662,1.204l-0.324,0a6.35,6.35 0 0 0 -6.338,6.292c0,1.866 1.182,3.69 2.045,5.023a6.572,6.572 0 0 1 0.752,1.324a10.398,10.398 0 0 1 0.114,1.235a3.628,3.628 0 0 0 0.77,2.473l-0.518,0.453a0.804,0.804 0 0 0 0.066,1.264l0.414,0.293l-0.364,0.263a0.804,0.804 0 0 0 -0.333,0.689a0.794,0.794 0 0 0 0.37,0.641l2.45,1.625a1.311,1.311 0 0 0 0.723,0.22l0.016,0a1.316,1.316 0 0 0 0.73,-0.22l2.43,-1.613a0.803,0.803 0 0 0 0.059,-1.34l-0.367,-0.265l0.418,-0.295a0.806,0.806 0 0 0 0.062,-1.263l-0.518,-0.452a3.626,3.626 0 0 0 0.77,-2.476a10.735,10.735 0 0 1 0.114,-1.232a6.64,6.64 0 0 1 0.75,-1.323c0.864,-1.334 2.047,-3.162 2.047,-5.024a6.35,6.35 0 0 0 -6.338,-6.292zm2.245,19.265l-2.225,1.476a0.41,0.41 0 0 1 -0.185,0.053l-0.002,0a0.32,0.32 0 0 1 -0.177,-0.053l-2.225,-1.475l1.264,-0.923l-1.35,-0.953l0.68,-0.594l3.625,0l0.68,0.594l-1.35,0.953l1.265,0.922zm-2.907,-3.469l0,-3l1,0l0,3l-1,0zm4.114,-5.023a5.595,5.595 0 0 0 -0.897,1.702a11.287,11.287 0 0 0 -0.126,1.344a2.598,2.598 0 0 1 -0.631,1.977l-0.46,0l0,-3.421l1.075,-3.325l-0.951,-0.309l-0.988,3.055l-1.272,0l-0.988,-3.055l-0.951,0.309l1.075,3.325l0,3.421l-0.46,0a2.59,2.59 0 0 1 -0.63,-1.973a11.574,11.574 0 0 0 -0.127,-1.348a5.597,5.597 0 0 0 -0.898,-1.704c-0.796,-1.227 -1.885,-2.908 -1.885,-4.479a5.343,5.343 0 0 1 5.338,-5.292l0.324,0a5.343,5.343 0 0 1 5.338,5.292c0,1.566 -1.09,3.251 -1.886,4.48l0,0.001z"/>
  <path id="svg_2" d="m0,0l24,0l0,24l-24,0l0,-24z" fill="none"/>
 </g> <line x1="9" y1="13" x2="2" y2="13" style="stroke:black;stroke-width:1"/>
</svg>